<mxfile host="app.diagrams.net" modified="2023-05-06T19:07:41.495Z" agent="Mozilla/5.0 (Windows NT 10.0; Win64; x64) AppleWebKit/537.36 (KHTML, like Gecko) Chrome/112.0.0.0 Safari/537.36" etag="i7n_Ob3T1ot_cfA8Nl0h" version="21.2.9" type="device">
  <diagram name="PÃ¡gina-1" id="O_5wI0EAizfAtZhjSfdx">
    <mxGraphModel dx="886" dy="513" grid="0" gridSize="10" guides="1" tooltips="1" connect="1" arrows="1" fold="1" page="1" pageScale="1" pageWidth="827" pageHeight="1169" math="0" shadow="0">
      <root>
        <mxCell id="0" />
        <mxCell id="1" parent="0" />
        <mxCell id="Asg81Dbt2TPtf4WlKjiV-8" style="edgeStyle=orthogonalEdgeStyle;rounded=0;orthogonalLoop=1;jettySize=auto;html=1;entryX=0.5;entryY=1;entryDx=0;entryDy=0;dashed=1;strokeWidth=2;fontSize=16;" parent="1" source="Asg81Dbt2TPtf4WlKjiV-1" target="Asg81Dbt2TPtf4WlKjiV-5" edge="1">
          <mxGeometry relative="1" as="geometry" />
        </mxCell>
        <mxCell id="Asg81Dbt2TPtf4WlKjiV-1" value="IACPC&lt;br style=&quot;font-size: 18px;&quot;&gt;Prototype" style="rounded=1;whiteSpace=wrap;html=1;fontSize=18;fontStyle=1" parent="1" vertex="1">
          <mxGeometry x="320" y="160" width="120" height="120" as="geometry" />
        </mxCell>
        <mxCell id="Asg81Dbt2TPtf4WlKjiV-18" style="edgeStyle=orthogonalEdgeStyle;rounded=0;orthogonalLoop=1;jettySize=auto;html=1;entryX=0;entryY=0.5;entryDx=0;entryDy=0;strokeWidth=5;fillColor=#dae8fc;strokeColor=#6c8ebf;endSize=0;" parent="1" source="Asg81Dbt2TPtf4WlKjiV-2" target="Asg81Dbt2TPtf4WlKjiV-1" edge="1">
          <mxGeometry relative="1" as="geometry" />
        </mxCell>
        <mxCell id="Asg81Dbt2TPtf4WlKjiV-2" value="12 W-fan to&amp;nbsp;&lt;br style=&quot;font-size: 14px;&quot;&gt;blow air at G&lt;sub style=&quot;font-size: 14px;&quot;&gt;air&lt;/sub&gt;" style="verticalLabelPosition=bottom;outlineConnect=0;align=center;dashed=0;html=1;verticalAlign=top;shape=mxgraph.pid.misc.fan;fontSize=14;" parent="1" vertex="1">
          <mxGeometry x="160" y="200" width="40" height="40" as="geometry" />
        </mxCell>
        <mxCell id="Asg81Dbt2TPtf4WlKjiV-4" value="" style="edgeStyle=none;orthogonalLoop=1;jettySize=auto;html=1;rounded=0;fillColor=#dae8fc;strokeColor=#6c8ebf;strokeWidth=5;endSize=0;fontSize=16;" parent="1" edge="1">
          <mxGeometry width="100" relative="1" as="geometry">
            <mxPoint x="80" y="220" as="sourcePoint" />
            <mxPoint x="160" y="219.5" as="targetPoint" />
            <Array as="points" />
          </mxGeometry>
        </mxCell>
        <mxCell id="Asg81Dbt2TPtf4WlKjiV-5" value="DataLogger for&lt;br style=&quot;font-size: 18px;&quot;&gt;temperatures data" style="shape=dataStorage;whiteSpace=wrap;html=1;fixedSize=1;fontSize=18;fontStyle=1" parent="1" vertex="1">
          <mxGeometry x="280" y="40" width="200" height="60" as="geometry" />
        </mxCell>
        <mxCell id="Asg81Dbt2TPtf4WlKjiV-6" value="" style="edgeStyle=none;orthogonalLoop=1;jettySize=auto;html=1;rounded=0;strokeWidth=5;fillColor=#dae8fc;strokeColor=#6c8ebf;endSize=0;fontSize=16;" parent="1" edge="1">
          <mxGeometry width="100" relative="1" as="geometry">
            <mxPoint x="440" y="180" as="sourcePoint" />
            <mxPoint x="560" y="180" as="targetPoint" />
          </mxGeometry>
        </mxCell>
        <mxCell id="Asg81Dbt2TPtf4WlKjiV-7" value="" style="edgeStyle=none;orthogonalLoop=1;jettySize=auto;html=1;rounded=0;entryX=1;entryY=0.5;entryDx=0;entryDy=0;dashed=1;strokeWidth=2;fontSize=16;startArrow=none;startFill=0;" parent="1" target="Asg81Dbt2TPtf4WlKjiV-5" edge="1">
          <mxGeometry width="100" relative="1" as="geometry">
            <mxPoint x="520" y="180" as="sourcePoint" />
            <mxPoint x="680" y="100" as="targetPoint" />
            <Array as="points">
              <mxPoint x="520" y="70" />
            </Array>
          </mxGeometry>
        </mxCell>
        <mxCell id="Asg81Dbt2TPtf4WlKjiV-11" value="T&lt;sub style=&quot;font-size: 14px;&quot;&gt;amb&lt;/sub&gt;" style="text;html=1;align=center;verticalAlign=middle;resizable=0;points=[];autosize=1;strokeColor=none;fillColor=none;fontSize=14;" parent="1" vertex="1">
          <mxGeometry x="66" y="185" width="60" height="30" as="geometry" />
        </mxCell>
        <mxCell id="Asg81Dbt2TPtf4WlKjiV-12" value="Air &lt;br style=&quot;font-size: 16px;&quot;&gt;inlet" style="text;html=1;align=center;verticalAlign=middle;resizable=0;points=[];autosize=1;strokeColor=none;fillColor=none;fontSize=16;" parent="1" vertex="1">
          <mxGeometry x="272" y="220" width="47" height="50" as="geometry" />
        </mxCell>
        <mxCell id="Asg81Dbt2TPtf4WlKjiV-13" value="Air&lt;br style=&quot;font-size: 16px;&quot;&gt;outlet" style="text;html=1;align=center;verticalAlign=middle;resizable=0;points=[];autosize=1;strokeColor=none;fillColor=none;fontSize=16;" parent="1" vertex="1">
          <mxGeometry x="437" y="175" width="57" height="50" as="geometry" />
        </mxCell>
        <mxCell id="Asg81Dbt2TPtf4WlKjiV-14" value="T&lt;sub style=&quot;font-size: 14px;&quot;&gt;out&lt;/sub&gt;" style="text;html=1;align=center;verticalAlign=middle;resizable=0;points=[];autosize=1;strokeColor=none;fillColor=none;fontSize=14;" parent="1" vertex="1">
          <mxGeometry x="515" y="140" width="50" height="30" as="geometry" />
        </mxCell>
        <mxCell id="Asg81Dbt2TPtf4WlKjiV-15" value="T&lt;sub style=&quot;font-size: 14px;&quot;&gt;in&lt;/sub&gt;" style="text;html=1;align=center;verticalAlign=middle;resizable=0;points=[];autosize=1;strokeColor=none;fillColor=none;fontSize=14;" parent="1" vertex="1">
          <mxGeometry x="240" y="190" width="40" height="30" as="geometry" />
        </mxCell>
        <mxCell id="Asg81Dbt2TPtf4WlKjiV-16" value="T&lt;sub style=&quot;font-size: 14px;&quot;&gt;abs&lt;/sub&gt;&lt;br style=&quot;font-size: 14px;&quot;&gt;T&lt;sub style=&quot;font-size: 14px;&quot;&gt;glaz&lt;/sub&gt;" style="text;html=1;align=center;verticalAlign=middle;resizable=0;points=[];autosize=1;strokeColor=none;fillColor=none;fontSize=14;" parent="1" vertex="1">
          <mxGeometry x="375" y="100" width="60" height="50" as="geometry" />
        </mxCell>
        <mxCell id="Asg81Dbt2TPtf4WlKjiV-17" value="AIR&lt;br style=&quot;font-size: 14px;&quot;&gt;DUCT" style="text;html=1;align=center;verticalAlign=middle;resizable=0;points=[];autosize=1;fontSize=14;fontStyle=1;fontColor=#7CA5CF;" parent="1" vertex="1">
          <mxGeometry x="69" y="219" width="57" height="46" as="geometry" />
        </mxCell>
        <mxCell id="Asg81Dbt2TPtf4WlKjiV-19" value="" style="edgeStyle=none;orthogonalLoop=1;jettySize=auto;html=1;rounded=0;entryX=0;entryY=0.75;entryDx=0;entryDy=0;startArrow=none;startFill=0;dashed=1;strokeWidth=2;" parent="1" target="Asg81Dbt2TPtf4WlKjiV-5" edge="1">
          <mxGeometry width="100" relative="1" as="geometry">
            <mxPoint x="240" y="220" as="sourcePoint" />
            <mxPoint x="490" y="350" as="targetPoint" />
            <Array as="points">
              <mxPoint x="240" y="85" />
            </Array>
          </mxGeometry>
        </mxCell>
        <mxCell id="Asg81Dbt2TPtf4WlKjiV-20" value="" style="edgeStyle=none;orthogonalLoop=1;jettySize=auto;html=1;rounded=0;entryX=0;entryY=0.25;entryDx=0;entryDy=0;startArrow=none;startFill=0;dashed=1;strokeWidth=2;" parent="1" target="Asg81Dbt2TPtf4WlKjiV-5" edge="1">
          <mxGeometry width="100" relative="1" as="geometry">
            <mxPoint x="120" y="220" as="sourcePoint" />
            <mxPoint x="210" y="110" as="targetPoint" />
            <Array as="points">
              <mxPoint x="120" y="55" />
            </Array>
          </mxGeometry>
        </mxCell>
      </root>
    </mxGraphModel>
  </diagram>
</mxfile>
